STARTFONT 2.2
FONT la120-10cpi
SIZE 12 100 72
FONTBOUNDINGBOX 10 9 0 -2
DWIDTH 10 0
STARTPROPERTIES 6
RESOLUTION_X 100
RESOLUTION_Y 72
POINT_SIZE 120
PIXEL_SIZE 12
FONT_ASCENT 7
FONT_DESCENT 2
ENDPROPERTIES
CHARS 152
STARTCHAR space
ENCODING 32
BBX 10 8 0 -1
SWIDTH 600 0
DWIDTH 10 0
BITMAP
0000
0000
0000
0000
0000
0000
0000
0000
ENDCHAR
STARTCHAR exclam
ENCODING 33
BBX 10 8 0 -1
SWIDTH 600 0
DWIDTH 10 0
BITMAP
0800
0800
0800
0800
0800
0000
0800
0000
ENDCHAR
STARTCHAR quotedbl
ENCODING 34
BBX 10 8 0 -1
SWIDTH 600 0
DWIDTH 10 0
BITMAP
1400
1400
1400
0000
0000
0000
0000
0000
ENDCHAR
STARTCHAR numbersign
ENCODING 35
BBX 10 8 0 -1
SWIDTH 600 0
DWIDTH 10 0
BITMAP
1400
1400
5500
1400
5500
1400
1400
0000
ENDCHAR
STARTCHAR dollar
ENCODING 36
BBX 10 8 0 -1
SWIDTH 600 0
DWIDTH 10 0
BITMAP
0800
2A00
4800
2A00
0900
2A00
0800
0000
ENDCHAR
STARTCHAR percent
ENCODING 37
BBX 10 8 0 -1
SWIDTH 600 0
DWIDTH 10 0
BITMAP
5100
5200
0400
0800
1000
2500
4500
0000
ENDCHAR
STARTCHAR ampersand
ENCODING 38
BBX 10 8 0 -1
SWIDTH 600 0
DWIDTH 10 0
BITMAP
1400
2200
1400
0800
1500
2200
1500
0000
ENDCHAR
STARTCHAR quotesingle
ENCODING 39
BBX 10 8 0 -1
SWIDTH 600 0
DWIDTH 10 0
BITMAP
0400
0800
1000
0000
0000
0000
0000
0000
ENDCHAR
STARTCHAR parenleft
ENCODING 40
BBX 10 8 0 -1
SWIDTH 600 0
DWIDTH 10 0
BITMAP
0400
0800
1000
1000
1000
0800
0400
0000
ENDCHAR
STARTCHAR parenright
ENCODING 41
BBX 10 8 0 -1
SWIDTH 600 0
DWIDTH 10 0
BITMAP
1000
0800
0400
0400
0400
0800
1000
0000
ENDCHAR
STARTCHAR asterisk
ENCODING 42
BBX 10 8 0 -1
SWIDTH 600 0
DWIDTH 10 0
BITMAP
0800
4900
2A00
1400
2A00
4900
0800
0000
ENDCHAR
STARTCHAR plus
ENCODING 43
BBX 10 8 0 -1
SWIDTH 600 0
DWIDTH 10 0
BITMAP
0800
0800
0800
5500
0800
0800
0800
0000
ENDCHAR
STARTCHAR comma
ENCODING 44
BBX 10 8 0 -1
SWIDTH 600 0
DWIDTH 10 0
BITMAP
0000
0000
0000
1400
1400
0800
1000
0000
ENDCHAR
STARTCHAR hyphen
ENCODING 45
BBX 10 8 0 -1
SWIDTH 600 0
DWIDTH 10 0
BITMAP
0000
0000
0000
5500
0000
0000
0000
0000
ENDCHAR
STARTCHAR period
ENCODING 46
BBX 10 8 0 -1
SWIDTH 600 0
DWIDTH 10 0
BITMAP
0000
0000
0000
0000
0800
1400
0800
0000
ENDCHAR
STARTCHAR slash
ENCODING 47
BBX 10 8 0 -1
SWIDTH 600 0
DWIDTH 10 0
BITMAP
0100
0200
0400
0800
1000
2000
4000
0000
ENDCHAR
STARTCHAR zero
ENCODING 48
BBX 10 8 0 -1
SWIDTH 600 0
DWIDTH 10 0
BITMAP
1400
2200
4100
4100
4100
2200
1400
0000
ENDCHAR
STARTCHAR one
ENCODING 49
BBX 10 8 0 -1
SWIDTH 600 0
DWIDTH 10 0
BITMAP
0800
2800
0800
0800
0800
0800
2A00
0000
ENDCHAR
STARTCHAR two
ENCODING 50
BBX 10 8 0 -1
SWIDTH 600 0
DWIDTH 10 0
BITMAP
2A00
4100
0100
0200
0800
2000
5500
0000
ENDCHAR
STARTCHAR three
ENCODING 51
BBX 10 8 0 -1
SWIDTH 600 0
DWIDTH 10 0
BITMAP
5500
0200
0400
0A00
0100
4100
2A00
0000
ENDCHAR
STARTCHAR four
ENCODING 52
BBX 10 8 0 -1
SWIDTH 600 0
DWIDTH 10 0
BITMAP
0400
0A00
1200
2200
5500
0200
0200
0000
ENDCHAR
STARTCHAR five
ENCODING 53
BBX 10 8 0 -1
SWIDTH 600 0
DWIDTH 10 0
BITMAP
5500
4000
5400
0100
0100
4100
2A00
0000
ENDCHAR
STARTCHAR six
ENCODING 54
BBX 10 8 0 -1
SWIDTH 600 0
DWIDTH 10 0
BITMAP
0400
0800
1000
2A00
4100
4100
2A00
0000
ENDCHAR
STARTCHAR seven
ENCODING 55
BBX 10 8 0 -1
SWIDTH 600 0
DWIDTH 10 0
BITMAP
5500
0100
0200
0400
0800
1000
2000
0000
ENDCHAR
STARTCHAR eight
ENCODING 56
BBX 10 8 0 -1
SWIDTH 600 0
DWIDTH 10 0
BITMAP
2A00
4100
4100
2A00
4100
4100
2A00
0000
ENDCHAR
STARTCHAR nine
ENCODING 57
BBX 10 8 0 -1
SWIDTH 600 0
DWIDTH 10 0
BITMAP
2A00
4100
4100
2A00
0400
0800
1000
0000
ENDCHAR
STARTCHAR colon
ENCODING 58
BBX 10 8 0 -1
SWIDTH 600 0
DWIDTH 10 0
BITMAP
0800
1400
0800
0000
0800
1400
0800
0000
ENDCHAR
STARTCHAR semicolon
ENCODING 59
BBX 10 8 0 -1
SWIDTH 600 0
DWIDTH 10 0
BITMAP
0800
1400
0000
1400
1400
0800
1000
0000
ENDCHAR
STARTCHAR less
ENCODING 60
BBX 10 8 0 -1
SWIDTH 600 0
DWIDTH 10 0
BITMAP
0100
0400
1000
4000
1000
0400
0100
0000
ENDCHAR
STARTCHAR equal
ENCODING 61
BBX 10 8 0 -1
SWIDTH 600 0
DWIDTH 10 0
BITMAP
0000
0000
5500
0000
5500
0000
0000
0000
ENDCHAR
STARTCHAR greater
ENCODING 62
BBX 10 8 0 -1
SWIDTH 600 0
DWIDTH 10 0
BITMAP
4000
1000
0400
0100
0400
1000
4000
0000
ENDCHAR
STARTCHAR question
ENCODING 63
BBX 10 8 0 -1
SWIDTH 600 0
DWIDTH 10 0
BITMAP
2A00
4100
0A00
0800
0800
0000
0800
0000
ENDCHAR
STARTCHAR at
ENCODING 64
BBX 10 8 0 -1
SWIDTH 600 0
DWIDTH 10 0
BITMAP
2A00
4100
4500
4900
4A00
4000
2A00
0000
ENDCHAR
STARTCHAR A
ENCODING 65
BBX 10 8 0 -1
SWIDTH 600 0
DWIDTH 10 0
BITMAP
0800
1400
2200
4100
5500
4100
4100
0000
ENDCHAR
STARTCHAR B
ENCODING 66
BBX 10 8 0 -1
SWIDTH 600 0
DWIDTH 10 0
BITMAP
5400
2100
2100
2A00
2100
2100
5400
0000
ENDCHAR
STARTCHAR C
ENCODING 67
BBX 10 8 0 -1
SWIDTH 600 0
DWIDTH 10 0
BITMAP
2A00
4100
4000
4000
4000
4100
2A00
0000
ENDCHAR
STARTCHAR D
ENCODING 68
BBX 10 8 0 -1
SWIDTH 600 0
DWIDTH 10 0
BITMAP
5400
2100
2100
2100
2100
2100
5400
0000
ENDCHAR
STARTCHAR E
ENCODING 69
BBX 10 8 0 -1
SWIDTH 600 0
DWIDTH 10 0
BITMAP
5500
4000
4000
5400
4000
4000
5500
0000
ENDCHAR
STARTCHAR F
ENCODING 70
BBX 10 8 0 -1
SWIDTH 600 0
DWIDTH 10 0
BITMAP
5500
4000
4000
5400
4000
4000
4000
0000
ENDCHAR
STARTCHAR G
ENCODING 71
BBX 10 8 0 -1
SWIDTH 600 0
DWIDTH 10 0
BITMAP
2A00
4100
4000
4500
4100
4100
2A00
0000
ENDCHAR
STARTCHAR H
ENCODING 72
BBX 10 8 0 -1
SWIDTH 600 0
DWIDTH 10 0
BITMAP
4100
4100
4100
5500
4100
4100
4100
0000
ENDCHAR
STARTCHAR I
ENCODING 73
BBX 10 8 0 -1
SWIDTH 600 0
DWIDTH 10 0
BITMAP
2A00
0800
0800
0800
0800
0800
2A00
0000
ENDCHAR
STARTCHAR J
ENCODING 74
BBX 10 8 0 -1
SWIDTH 600 0
DWIDTH 10 0
BITMAP
0100
0100
0100
0100
0100
4100
2A00
0000
ENDCHAR
STARTCHAR K
ENCODING 75
BBX 10 8 0 -1
SWIDTH 600 0
DWIDTH 10 0
BITMAP
4100
4400
5000
4800
4400
4200
4100
0000
ENDCHAR
STARTCHAR L
ENCODING 76
BBX 10 8 0 -1
SWIDTH 600 0
DWIDTH 10 0
BITMAP
4000
4000
4000
4000
4000
4000
5500
0000
ENDCHAR
STARTCHAR M
ENCODING 77
BBX 10 8 0 -1
SWIDTH 600 0
DWIDTH 10 0
BITMAP
4100
2200
5500
4900
4100
4100
4100
0000
ENDCHAR
STARTCHAR N
ENCODING 78
BBX 10 8 0 -1
SWIDTH 600 0
DWIDTH 10 0
BITMAP
4100
2100
5100
4900
4500
4200
4100
0000
ENDCHAR
STARTCHAR O
ENCODING 79
BBX 10 8 0 -1
SWIDTH 600 0
DWIDTH 10 0
BITMAP
2A00
4100
4100
4100
4100
4100
2A00
0000
ENDCHAR
STARTCHAR P
ENCODING 80
BBX 10 8 0 -1
SWIDTH 600 0
DWIDTH 10 0
BITMAP
5400
4100
4100
5400
4000
4000
4000
0000
ENDCHAR
STARTCHAR Q
ENCODING 81
BBX 10 8 0 -1
SWIDTH 600 0
DWIDTH 10 0
BITMAP
2A00
4100
4100
4100
4500
4200
2900
0000
ENDCHAR
STARTCHAR R
ENCODING 82
BBX 10 8 0 -1
SWIDTH 600 0
DWIDTH 10 0
BITMAP
5400
4100
4100
5400
4400
4200
4100
0000
ENDCHAR
STARTCHAR S
ENCODING 83
BBX 10 8 0 -1
SWIDTH 600 0
DWIDTH 10 0
BITMAP
2A00
4100
4000
2A00
0100
4100
2A00
0000
ENDCHAR
STARTCHAR T
ENCODING 84
BBX 10 8 0 -1
SWIDTH 600 0
DWIDTH 10 0
BITMAP
5500
0800
0800
0800
0800
0800
0800
0000
ENDCHAR
STARTCHAR U
ENCODING 85
BBX 10 8 0 -1
SWIDTH 600 0
DWIDTH 10 0
BITMAP
4100
4100
4100
4100
4100
4100
2A00
0000
ENDCHAR
STARTCHAR V
ENCODING 86
BBX 10 8 0 -1
SWIDTH 600 0
DWIDTH 10 0
BITMAP
4100
4100
4100
4100
2200
1400
0800
0000
ENDCHAR
STARTCHAR W
ENCODING 87
BBX 10 8 0 -1
SWIDTH 600 0
DWIDTH 10 0
BITMAP
4100
4100
4100
4900
4900
5500
2200
0000
ENDCHAR
STARTCHAR X
ENCODING 88
BBX 10 8 0 -1
SWIDTH 600 0
DWIDTH 10 0
BITMAP
4100
2200
1400
0800
1400
2200
4100
0000
ENDCHAR
STARTCHAR Y
ENCODING 89
BBX 10 8 0 -1
SWIDTH 600 0
DWIDTH 10 0
BITMAP
4100
2200
1400
0800
0800
0800
0800
0000
ENDCHAR
STARTCHAR Z
ENCODING 90
BBX 10 8 0 -1
SWIDTH 600 0
DWIDTH 10 0
BITMAP
5500
0200
0400
0800
1000
2000
5500
0000
ENDCHAR
STARTCHAR bracketleft
ENCODING 91
BBX 10 8 0 -1
SWIDTH 600 0
DWIDTH 10 0
BITMAP
1500
1000
1000
1000
1000
1000
1500
0000
ENDCHAR
STARTCHAR backslash
ENCODING 92
BBX 10 8 0 -1
SWIDTH 600 0
DWIDTH 10 0
BITMAP
4000
2000
1000
0800
0400
0200
0100
0000
ENDCHAR
STARTCHAR bracketright
ENCODING 93
BBX 10 8 0 -1
SWIDTH 600 0
DWIDTH 10 0
BITMAP
5400
0400
0400
0400
0400
0400
5400
0000
ENDCHAR
STARTCHAR asciicircum
ENCODING 94
BBX 10 8 0 -1
SWIDTH 600 0
DWIDTH 10 0
BITMAP
2A00
4100
0000
0000
0000
0000
0000
0000
ENDCHAR
STARTCHAR underscore
ENCODING 95
BBX 10 8 0 -1
SWIDTH 600 0
DWIDTH 10 0
BITMAP
0000
0000
0000
0000
0000
0000
5500
0000
ENDCHAR
STARTCHAR grave
ENCODING 96
BBX 10 8 0 -1
SWIDTH 600 0
DWIDTH 10 0
BITMAP
1000
0800
0400
0000
0000
0000
0000
0000
ENDCHAR
STARTCHAR a
ENCODING 97
BBX 10 8 0 -1
SWIDTH 600 0
DWIDTH 10 0
BITMAP
0000
0000
2A00
0100
2A00
4100
2A00
0000
ENDCHAR
STARTCHAR b
ENCODING 98
BBX 10 8 0 -1
SWIDTH 600 0
DWIDTH 10 0
BITMAP
4000
4000
2A00
4100
4100
4100
5400
0000
ENDCHAR
STARTCHAR c
ENCODING 99
BBX 10 8 0 -1
SWIDTH 600 0
DWIDTH 10 0
BITMAP
0000
0000
2A00
4100
4000
4000
2A00
0000
ENDCHAR
STARTCHAR d
ENCODING 100
BBX 10 8 0 -1
SWIDTH 600 0
DWIDTH 10 0
BITMAP
0100
0100
2A00
4100
4100
4100
1500
0000
ENDCHAR
STARTCHAR e
ENCODING 101
BBX 10 8 0 -1
SWIDTH 600 0
DWIDTH 10 0
BITMAP
0000
0000
2A00
4100
5500
4000
2A00
0000
ENDCHAR
STARTCHAR f
ENCODING 102
BBX 10 8 0 -1
SWIDTH 600 0
DWIDTH 10 0
BITMAP
0A00
1100
5400
1000
1000
1000
1000
0000
ENDCHAR
STARTCHAR g
ENCODING 103
BBX 10 8 0 -1
SWIDTH 600 0
DWIDTH 10 0
BITMAP
0000
0100
2A00
4100
2A00
0100
5500
0000
ENDCHAR
STARTCHAR h
ENCODING 104
BBX 10 8 0 -1
SWIDTH 600 0
DWIDTH 10 0
BITMAP
4000
4000
2A00
4100
4100
4100
4100
0000
ENDCHAR
STARTCHAR i
ENCODING 105
BBX 10 8 0 -1
SWIDTH 600 0
DWIDTH 10 0
BITMAP
0800
0000
2800
0800
0800
0800
2A00
0000
ENDCHAR
STARTCHAR j
ENCODING 106
BBX 10 8 0 -1
SWIDTH 600 0
DWIDTH 10 0
BITMAP
0100
0000
0100
0100
0100
4100
2A00
0000
ENDCHAR
STARTCHAR k
ENCODING 107
BBX 10 8 0 -1
SWIDTH 600 0
DWIDTH 10 0
BITMAP
4000
4000
4400
4800
5000
4400
4100
0000
ENDCHAR
STARTCHAR l
ENCODING 108
BBX 10 8 0 -1
SWIDTH 600 0
DWIDTH 10 0
BITMAP
2800
0800
0800
0800
0800
0800
2A00
0000
ENDCHAR
STARTCHAR m
ENCODING 109
BBX 10 8 0 -1
SWIDTH 600 0
DWIDTH 10 0
BITMAP
0000
0000
5400
4900
4900
4900
4900
0000
ENDCHAR
STARTCHAR n
ENCODING 110
BBX 10 8 0 -1
SWIDTH 600 0
DWIDTH 10 0
BITMAP
0000
0000
5400
4100
4100
4100
4100
0000
ENDCHAR
STARTCHAR o
ENCODING 111
BBX 10 8 0 -1
SWIDTH 600 0
DWIDTH 10 0
BITMAP
0000
0000
2A00
4100
4100
4100
2A00
0000
ENDCHAR
STARTCHAR p
ENCODING 112
BBX 10 8 0 -1
SWIDTH 600 0
DWIDTH 10 0
BITMAP
0000
0000
5400
4100
5400
4000
4000
0000
ENDCHAR
STARTCHAR q
ENCODING 113
BBX 10 8 0 -1
SWIDTH 600 0
DWIDTH 10 0
BITMAP
0000
0000
2A00
4100
4500
4200
2900
0000
ENDCHAR
STARTCHAR r
ENCODING 114
BBX 10 8 0 -1
SWIDTH 600 0
DWIDTH 10 0
BITMAP
0000
0000
2A00
1100
1000
1000
1000
0000
ENDCHAR
STARTCHAR s
ENCODING 115
BBX 10 8 0 -1
SWIDTH 600 0
DWIDTH 10 0
BITMAP
0000
0000
2A00
4000
2A00
0100
2A00
0000
ENDCHAR
STARTCHAR t
ENCODING 116
BBX 10 8 0 -1
SWIDTH 600 0
DWIDTH 10 0
BITMAP
1000
1000
5400
1000
1000
1100
0A00
0000
ENDCHAR
STARTCHAR u
ENCODING 117
BBX 10 8 0 -1
SWIDTH 600 0
DWIDTH 10 0
BITMAP
0000
0000
4100
4100
4100
4100
1500
0000
ENDCHAR
STARTCHAR v
ENCODING 118
BBX 10 8 0 -1
SWIDTH 600 0
DWIDTH 10 0
BITMAP
0000
0000
4100
4100
2200
1400
0800
0000
ENDCHAR
STARTCHAR w
ENCODING 119
BBX 10 8 0 -1
SWIDTH 600 0
DWIDTH 10 0
BITMAP
0000
0000
4100
4100
4900
5500
2200
0000
ENDCHAR
STARTCHAR x
ENCODING 120
BBX 10 8 0 -1
SWIDTH 600 0
DWIDTH 10 0
BITMAP
0000
0000
4100
2200
0800
2200
4100
0000
ENDCHAR
STARTCHAR y
ENCODING 121
BBX 10 8 0 -1
SWIDTH 600 0
DWIDTH 10 0
BITMAP
0000
0000
4100
4100
2A00
0100
2A00
0000
ENDCHAR
STARTCHAR z
ENCODING 122
BBX 10 8 0 -1
SWIDTH 600 0
DWIDTH 10 0
BITMAP
0000
0000
5500
0200
0800
2000
5500
0000
ENDCHAR
STARTCHAR braceleft
ENCODING 123
BBX 10 8 0 -1
SWIDTH 600 0
DWIDTH 10 0
BITMAP
0500
0800
0800
5000
0800
0800
0500
0000
ENDCHAR
STARTCHAR bar
ENCODING 124
BBX 10 8 0 -1
SWIDTH 600 0
DWIDTH 10 0
BITMAP
0800
0800
0800
0800
0800
0800
0800
0000
ENDCHAR
STARTCHAR braceright
ENCODING 125
BBX 10 8 0 -1
SWIDTH 600 0
DWIDTH 10 0
BITMAP
5000
0800
0800
0500
0800
0800
5000
0000
ENDCHAR
STARTCHAR asciitilde
ENCODING 126
BBX 10 8 0 -1
SWIDTH 600 0
DWIDTH 10 0
BITMAP
1100
2A00
4400
0000
0000
0000
0000
0000
ENDCHAR
STARTCHAR registered
ENCODING 174
BBX 10 8 0 -1
SWIDTH 600 0
DWIDTH 10 0
BITMAP
0A00
1100
1000
5400
1000
1000
5500
0000
ENDCHAR
STARTCHAR Adieresis
ENCODING 196
BBX 10 8 0 -1
SWIDTH 600 0
DWIDTH 10 0
BITMAP
2200
0800
1400
2200
4100
5500
4100
0000
ENDCHAR
STARTCHAR adieresis
ENCODING 228
BBX 10 8 0 -1
SWIDTH 600 0
DWIDTH 10 0
BITMAP
2200
0000
2A00
0100
2A00
4100
2A00
0000
ENDCHAR
STARTCHAR Aring
ENCODING 197
BBX 10 8 0 -1
SWIDTH 600 0
DWIDTH 10 0
BITMAP
0800
1400
0800
1400
2200
5500
4100
0000
ENDCHAR
STARTCHAR aring
ENCODING 229
BBX 10 8 0 -1
SWIDTH 600 0
DWIDTH 10 0
BITMAP
0800
1400
0800
2A00
4200
4200
2900
0000
ENDCHAR
STARTCHAR Eacute
ENCODING 201
BBX 10 8 0 -1
SWIDTH 600 0
DWIDTH 10 0
BITMAP
0400
0800
5500
4000
5400
4000
5500
0000
ENDCHAR
STARTCHAR eacute
ENCODING 233
BBX 10 8 0 -1
SWIDTH 600 0
DWIDTH 10 0
BITMAP
0400
0800
2A00
4100
5500
4000
2A00
0000
ENDCHAR
STARTCHAR Odieresis
ENCODING 214
BBX 10 8 0 -1
SWIDTH 600 0
DWIDTH 10 0
BITMAP
4100
1400
2200
4100
4100
2200
1400
0000
ENDCHAR
STARTCHAR odieresis
ENCODING 246
BBX 10 8 0 -1
SWIDTH 600 0
DWIDTH 10 0
BITMAP
2200
0000
2A00
4100
4100
4100
2A00
0000
ENDCHAR
STARTCHAR Udieresis
ENCODING 220
BBX 10 8 0 -1
SWIDTH 600 0
DWIDTH 10 0
BITMAP
4100
0000
4100
4100
4100
4100
2A00
0000
ENDCHAR
STARTCHAR udieresis
ENCODING 252
BBX 10 8 0 -1
SWIDTH 600 0
DWIDTH 10 0
BITMAP
2200
0000
4100
4100
4100
4100
1500
0000
ENDCHAR
STARTCHAR AE
ENCODING 198
BBX 10 8 0 -1
SWIDTH 600 0
DWIDTH 10 0
BITMAP
1500
2400
4400
5500
4400
4400
4500
0000
ENDCHAR
STARTCHAR ae
ENCODING 230
BBX 10 8 0 -1
SWIDTH 600 0
DWIDTH 10 0
BITMAP
0000
0000
5500
0900
2A00
4800
5500
0000
ENDCHAR
STARTCHAR Oslash
ENCODING 216
BBX 10 8 0 -1
SWIDTH 600 0
DWIDTH 10 0
BITMAP
1400
2200
4500
4900
5100
2200
1400
0000
ENDCHAR
STARTCHAR oslash
ENCODING 248
BBX 10 8 0 -1
SWIDTH 600 0
DWIDTH 10 0
BITMAP
0000
0000
2A00
4500
4900
5100
2A00
0000
ENDCHAR
STARTCHAR section
ENCODING 167
BBX 10 8 0 -1
SWIDTH 600 0
DWIDTH 10 0
BITMAP
0A00
1000
1400
2200
1400
0400
2800
0000
ENDCHAR
STARTCHAR degree
ENCODING 176
BBX 10 8 0 -1
SWIDTH 600 0
DWIDTH 10 0
BITMAP
1400
2200
1400
0000
0000
0000
0000
0000
ENDCHAR
STARTCHAR ccedilla
ENCODING 231
BBX 10 8 0 -1
SWIDTH 600 0
DWIDTH 10 0
BITMAP
0000
2A00
4100
4000
4000
2A00
0800
0000
ENDCHAR
STARTCHAR dieresis
ENCODING 168
BBX 10 8 0 -1
SWIDTH 600 0
DWIDTH 10 0
BITMAP
2200
0000
0000
0000
0000
0000
0000
0000
ENDCHAR
STARTCHAR germandbls
ENCODING 223
BBX 10 8 0 -1
SWIDTH 600 0
DWIDTH 10 0
BITMAP
2800
4400
4800
5400
4200
4200
5400
0000
ENDCHAR
STARTCHAR agrave
ENCODING 224
BBX 10 8 0 -1
SWIDTH 600 0
DWIDTH 10 0
BITMAP
1000
0800
2A00
0100
2A00
4100
2A00
0000
ENDCHAR
STARTCHAR lessequal
ENCODING 8804
BBX 10 8 0 -1
SWIDTH 600 0
DWIDTH 10 0
BITMAP
0400
0800
1000
0800
0400
0000
5500
0000
ENDCHAR
STARTCHAR logicalor
ENCODING 8744
BBX 10 8 0 -1
SWIDTH 600 0
DWIDTH 10 0
BITMAP
0000
0000
4100
2200
1400
0800
0000
0000
ENDCHAR
STARTCHAR logicaland
ENCODING 8743
BBX 10 8 0 -1
SWIDTH 600 0
DWIDTH 10 0
BITMAP
0000
0800
1400
2200
4100
0000
0000
0000
ENDCHAR
STARTCHAR notequal
ENCODING 8800
BBX 10 8 0 -1
SWIDTH 600 0
DWIDTH 10 0
BITMAP
0100
0200
5500
0800
5500
2000
4000
0000
ENDCHAR
STARTCHAR divide
ENCODING 247
BBX 10 8 0 -1
SWIDTH 600 0
DWIDTH 10 0
BITMAP
0000
0800
0000
5500
0000
0800
0000
0000
ENDCHAR
STARTCHAR multiply
ENCODING 215
BBX 10 8 0 -1
SWIDTH 600 0
DWIDTH 10 0
BITMAP
0000
2200
1400
0800
1400
2200
0000
0000
ENDCHAR
STARTCHAR uni203E
ENCODING 8254
BBX 10 8 0 -1
SWIDTH 600 0
DWIDTH 10 0
BITMAP
5500
0000
0000
0000
0000
0000
0000
0000
ENDCHAR
STARTCHAR uni237A
ENCODING 9082
BBX 10 8 0 -1
SWIDTH 600 0
DWIDTH 10 0
BITMAP
0000
0000
2900
4400
4400
4400
2900
0000
ENDCHAR
STARTCHAR perpendicular
ENCODING 8869
BBX 10 8 0 -1
SWIDTH 600 0
DWIDTH 10 0
BITMAP
0000
0000
0000
0800
0800
0800
5500
0000
ENDCHAR
STARTCHAR intersection
ENCODING 8745
BBX 10 8 0 -1
SWIDTH 600 0
DWIDTH 10 0
BITMAP
0000
0000
1400
2200
2200
2200
2200
0000
ENDCHAR
STARTCHAR uni230A
ENCODING 8970
BBX 10 8 0 -1
SWIDTH 600 0
DWIDTH 10 0
BITMAP
2000
2000
2000
2000
2000
2000
2A00
0000
ENDCHAR
STARTCHAR gradient
ENCODING 8711
BBX 10 8 0 -1
SWIDTH 600 0
DWIDTH 10 0
BITMAP
0000
5500
4100
2200
1400
0800
0000
0000
ENDCHAR
STARTCHAR Delta
ENCODING 8710
BBX 10 8 0 -1
SWIDTH 600 0
DWIDTH 10 0
BITMAP
0000
0800
1400
2200
4100
5500
0000
0000
ENDCHAR
STARTCHAR uni2218
ENCODING 8728
BBX 10 8 0 -1
SWIDTH 600 0
DWIDTH 10 0
BITMAP
0000
0000
1400
2200
1400
0000
0000
0000
ENDCHAR
STARTCHAR uni2395
ENCODING 9109
BBX 10 8 0 -1
SWIDTH 600 0
DWIDTH 10 0
BITMAP
5500
4100
4100
4100
4100
4100
5500
0000
ENDCHAR
STARTCHAR uni22A4
ENCODING 8868
BBX 10 8 0 -1
SWIDTH 600 0
DWIDTH 10 0
BITMAP
0000
0000
0000
5500
0800
0800
0800
0000
ENDCHAR
STARTCHAR uni22C6
ENCODING 8902
BBX 10 8 0 -1
SWIDTH 600 0
DWIDTH 10 0
BITMAP
0000
0800
2A00
1400
1400
2200
0000
0000
ENDCHAR
STARTCHAR uni2308
ENCODING 8968
BBX 10 8 0 -1
SWIDTH 600 0
DWIDTH 10 0
BITMAP
2A00
2000
2000
2000
2000
2000
2000
0000
ENDCHAR
STARTCHAR arrowdown
ENCODING 8595
BBX 10 8 0 -1
SWIDTH 600 0
DWIDTH 10 0
BITMAP
0800
0800
0800
4900
2A00
1400
0800
0000
ENDCHAR
STARTCHAR union
ENCODING 8746
BBX 10 8 0 -1
SWIDTH 600 0
DWIDTH 10 0
BITMAP
0000
0000
2200
2200
2200
2200
1400
0000
ENDCHAR
STARTCHAR uni2375
ENCODING 9077
BBX 10 8 0 -1
SWIDTH 600 0
DWIDTH 10 0
BITMAP
0000
0000
2200
4100
4900
5500
2200
0000
ENDCHAR
STARTCHAR propersuperset
ENCODING 8835
BBX 10 8 0 -1
SWIDTH 600 0
DWIDTH 10 0
BITMAP
0000
0000
5400
0200
0200
5400
0000
0000
ENDCHAR
STARTCHAR arrowup
ENCODING 8593
BBX 10 8 0 -1
SWIDTH 600 0
DWIDTH 10 0
BITMAP
0800
1400
2A00
4900
0800
0800
0800
0000
ENDCHAR
STARTCHAR propersubset
ENCODING 8834
BBX 10 8 0 -1
SWIDTH 600 0
DWIDTH 10 0
BITMAP
0000
0000
2A00
4000
4000
2A00
0000
0000
ENDCHAR
STARTCHAR arrowleft
ENCODING 8592
BBX 10 8 0 -1
SWIDTH 600 0
DWIDTH 10 0
BITMAP
0000
1000
2000
5500
2000
1000
0000
0000
ENDCHAR
STARTCHAR uni22A2
ENCODING 8866
BBX 10 8 0 -1
SWIDTH 600 0
DWIDTH 10 0
BITMAP
0000
4000
4000
5500
4000
4000
0000
0000
ENDCHAR
STARTCHAR arrowright
ENCODING 8594
BBX 10 8 0 -1
SWIDTH 600 0
DWIDTH 10 0
BITMAP
0000
0400
0200
5500
0200
0400
0000
0000
ENDCHAR
STARTCHAR greaterequal
ENCODING 8805
BBX 10 8 0 -1
SWIDTH 600 0
DWIDTH 10 0
BITMAP
1000
0800
0400
0800
1000
0000
5500
0000
ENDCHAR
STARTCHAR uni22C4
ENCODING 8900
BBX 10 8 0 -1
SWIDTH 600 0
DWIDTH 10 0
BITMAP
0800
1400
2200
4100
2200
1400
0800
0000
ENDCHAR
STARTCHAR uni22A3
ENCODING 8867
BBX 10 8 0 -1
SWIDTH 600 0
DWIDTH 10 0
BITMAP
0000
0100
0100
5500
0100
0100
0000
0000
ENDCHAR
STARTCHAR similar
ENCODING 8764
BBX 10 8 0 -1
SWIDTH 600 0
DWIDTH 10 0
BITMAP
0000
0000
1100
2A00
4400
0000
0000
0000
ENDCHAR
STARTCHAR uni2223
ENCODING 8739
BBX 10 8 0 -1
SWIDTH 600 0
DWIDTH 10 0
BITMAP
0800
0800
0800
0800
0800
0800
0800
0000
ENDCHAR
STARTCHAR quoteleft
ENCODING 8216
BBX 10 8 0 -1
SWIDTH 600 0
DWIDTH 10 0
BITMAP
0400
0800
1400
1400
0000
0000
0000
0000
ENDCHAR
STARTCHAR quoteright
ENCODING 8217
BBX 10 8 0 -1
SWIDTH 600 0
DWIDTH 10 0
BITMAP
1400
1400
0800
1000
0000
0000
0000
0000
ENDCHAR
STARTCHAR quotedblleft
ENCODING 8220
BBX 10 8 0 -1
SWIDTH 600 0
DWIDTH 10 0
BITMAP
1100
2200
4400
4400
0000
0000
0000
0000
ENDCHAR
STARTCHAR quotedblright
ENCODING 8221
BBX 10 8 0 -1
SWIDTH 600 0
DWIDTH 10 0
BITMAP
1100
1100
2200
4400
0000
0000
0000
0000
ENDCHAR
ENDFONT
